# Blender 4.0.2
# www.blender.org
mtllib monitor.mtl
o Cube
v -0.100000 -1.000000 -1.500000
v -0.100000 1.000000 -1.500000
v -0.100000 -1.000000 1.500000
v -0.100000 1.000000 1.500000
v 0.100000 -0.899818 -1.399818
v 0.100000 0.899818 -1.399818
v 0.100000 -0.899818 1.399818
v 0.100000 0.899818 1.399818
v 0.100000 1.000000 1.500000
v 0.100000 -1.000000 1.500000
v 0.100000 -1.000000 -1.500000
v 0.100000 1.000000 -1.500000
v 0.037068 -0.899818 -1.399818
v 0.037068 0.899818 -1.399818
v 0.037068 -0.899818 1.399818
v 0.037068 0.899818 1.399818
v 0.146088 0.792351 1.419899
v 0.084605 0.792351 1.419899
v 0.146088 0.786354 1.420490
v 0.084605 0.786354 1.420490
v 0.146088 0.780587 1.422240
v 0.084605 0.780587 1.422240
v 0.146088 0.775272 1.425080
v 0.084605 0.775272 1.425080
v 0.146088 0.770614 1.428903
v 0.084605 0.770614 1.428903
v 0.146088 0.766791 1.433562
v 0.084605 0.766791 1.433562
v 0.146088 0.763950 1.438876
v 0.084605 0.763950 1.438876
v 0.146088 0.762201 1.444643
v 0.084605 0.762201 1.444643
v 0.146088 0.761610 1.450640
v 0.084605 0.761610 1.450640
v 0.146088 0.762201 1.456638
v 0.084605 0.762201 1.456638
v 0.146088 0.763950 1.462405
v 0.084605 0.763950 1.462405
v 0.146088 0.766791 1.467719
v 0.084605 0.766791 1.467719
v 0.146088 0.770614 1.472378
v 0.084605 0.770614 1.472378
v 0.146088 0.775272 1.476201
v 0.084605 0.775272 1.476201
v 0.146088 0.780587 1.479042
v 0.084605 0.780587 1.479042
v 0.146088 0.786354 1.480791
v 0.084605 0.786354 1.480791
v 0.146088 0.792351 1.481382
v 0.084605 0.792351 1.481382
v 0.146088 0.798349 1.480791
v 0.084605 0.798349 1.480791
v 0.146088 0.804115 1.479042
v 0.084605 0.804115 1.479042
v 0.146088 0.809430 1.476201
v 0.084605 0.809430 1.476201
v 0.146088 0.814088 1.472378
v 0.084605 0.814088 1.472378
v 0.146088 0.817912 1.467719
v 0.084605 0.817912 1.467719
v 0.146088 0.820752 1.462405
v 0.084605 0.820752 1.462405
v 0.146088 0.822502 1.456638
v 0.084605 0.822502 1.456638
v 0.146088 0.823092 1.450640
v 0.084605 0.823092 1.450640
v 0.146088 0.822502 1.444643
v 0.084605 0.822502 1.444643
v 0.146088 0.820752 1.438876
v 0.084605 0.820752 1.438876
v 0.146088 0.817912 1.433562
v 0.084605 0.817912 1.433562
v 0.146088 0.814088 1.428903
v 0.084605 0.814088 1.428903
v 0.146088 0.809430 1.425080
v 0.084605 0.809430 1.425080
v 0.146088 0.804115 1.422240
v 0.084605 0.804115 1.422240
v 0.146088 0.798349 1.420490
v 0.084605 0.798349 1.420490
v 0.146088 0.692351 1.419899
v 0.084605 0.692351 1.419899
v 0.146088 0.686354 1.420490
v 0.084605 0.686354 1.420490
v 0.146088 0.680587 1.422240
v 0.084605 0.680587 1.422240
v 0.146088 0.675272 1.425080
v 0.084605 0.675272 1.425080
v 0.146088 0.670614 1.428903
v 0.084605 0.670614 1.428903
v 0.146088 0.666791 1.433562
v 0.084605 0.666791 1.433562
v 0.146088 0.663950 1.438876
v 0.084605 0.663950 1.438876
v 0.146088 0.662201 1.444643
v 0.084605 0.662201 1.444643
v 0.146088 0.661610 1.450640
v 0.084605 0.661610 1.450640
v 0.146088 0.662201 1.456638
v 0.084605 0.662201 1.456638
v 0.146088 0.663950 1.462405
v 0.084605 0.663950 1.462405
v 0.146088 0.666791 1.467719
v 0.084605 0.666791 1.467719
v 0.146088 0.670614 1.472378
v 0.084605 0.670614 1.472378
v 0.146088 0.675272 1.476201
v 0.084605 0.675272 1.476201
v 0.146088 0.680587 1.479042
v 0.084605 0.680587 1.479042
v 0.146088 0.686354 1.480791
v 0.084605 0.686354 1.480791
v 0.146088 0.692351 1.481382
v 0.084605 0.692351 1.481382
v 0.146088 0.698349 1.480791
v 0.084605 0.698349 1.480791
v 0.146088 0.704115 1.479042
v 0.084605 0.704115 1.479042
v 0.146088 0.709430 1.476201
v 0.084605 0.709430 1.476201
v 0.146088 0.714088 1.472378
v 0.084605 0.714088 1.472378
v 0.146088 0.717911 1.467719
v 0.084605 0.717911 1.467719
v 0.146088 0.720752 1.462405
v 0.084605 0.720752 1.462405
v 0.146088 0.722502 1.456638
v 0.084605 0.722502 1.456638
v 0.146088 0.723092 1.450640
v 0.084605 0.723092 1.450640
v 0.146088 0.722502 1.444643
v 0.084605 0.722502 1.444643
v 0.146088 0.720752 1.438876
v 0.084605 0.720752 1.438876
v 0.146088 0.717911 1.433562
v 0.084605 0.717911 1.433562
v 0.146088 0.714088 1.428903
v 0.084605 0.714088 1.428903
v 0.146088 0.709430 1.425080
v 0.084605 0.709430 1.425080
v 0.146088 0.704115 1.422240
v 0.084605 0.704115 1.422240
v 0.146088 0.698349 1.420490
v 0.084605 0.698349 1.420490
vn -1.0000 -0.0000 -0.0000
vn -0.0000 -0.0000 1.0000
vn -0.0000 -0.0000 -1.0000
vn -0.0000 -1.0000 -0.0000
vn -0.0000 1.0000 -0.0000
vn 1.0000 -0.0000 -0.0000
vn -0.0000 -0.0980 -0.9952
vn -0.0000 -0.2903 -0.9569
vn -0.0000 -0.4714 -0.8819
vn -0.0000 -0.6344 -0.7730
vn -0.0000 -0.7730 -0.6344
vn -0.0000 -0.8819 -0.4714
vn -0.0000 -0.9569 -0.2903
vn -0.0000 -0.9952 -0.0980
vn -0.0000 -0.9952 0.0980
vn -0.0000 -0.9569 0.2903
vn -0.0000 -0.8819 0.4714
vn -0.0000 -0.7730 0.6344
vn -0.0000 -0.6344 0.7730
vn -0.0000 -0.4714 0.8819
vn -0.0000 -0.2903 0.9569
vn -0.0000 -0.0980 0.9952
vn -0.0000 0.0980 0.9952
vn -0.0000 0.2903 0.9569
vn -0.0000 0.4714 0.8819
vn -0.0000 0.6344 0.7730
vn -0.0000 0.7730 0.6344
vn -0.0000 0.8819 0.4714
vn -0.0000 0.9569 0.2903
vn -0.0000 0.9952 0.0980
vn -0.0000 0.9952 -0.0980
vn -0.0000 0.9569 -0.2903
vn -0.0000 0.8819 -0.4714
vn -0.0000 0.7730 -0.6344
vn -0.0000 0.6344 -0.7730
vn -0.0000 0.4714 -0.8819
vn -0.0000 0.2903 -0.9569
vn -0.0000 0.0980 -0.9952
vt 0.375000 0.000000
vt 0.375000 0.250000
vt 0.625000 0.250000
vt 0.625000 0.000000
vt 0.375000 0.500000
vt 0.625000 0.500000
vt 0.612477 0.741651
vt 0.387523 0.741652
vt 0.375000 0.750000
vt 0.375000 1.000000
vt 0.625000 1.000000
vt 0.625000 0.750000
vt 0.125000 0.500000
vt 0.125000 0.750000
vt 0.875000 0.750000
vt 0.875000 0.500000
vt 0.612477 0.508348
vt 0.387523 0.508348
vt 0.996714 0.150774
vt 0.003286 0.150773
vt 0.003287 0.849226
vt 0.996714 0.849227
vt 0.750000 0.000547
vt 0.750000 0.016172
vt 1.000000 0.016172
vt 1.000000 0.000547
vt 0.750000 0.031797
vt 1.000000 0.031797
vt 0.750000 0.047422
vt 1.000000 0.047422
vt 0.750000 0.063047
vt 1.000000 0.063047
vt 0.750000 0.078672
vt 1.000000 0.078672
vt 0.750000 0.094297
vt 1.000000 0.094297
vt 0.750000 0.109922
vt 1.000000 0.109922
vt 0.750000 0.125547
vt 1.000000 0.125547
vt 0.750000 0.141172
vt 1.000000 0.141172
vt 0.750000 0.156797
vt 1.000000 0.156797
vt 0.750000 0.172422
vt 1.000000 0.172422
vt 0.750000 0.188047
vt 1.000000 0.188047
vt 0.750000 0.203672
vt 1.000000 0.203672
vt 0.750000 0.219297
vt 1.000000 0.219297
vt 0.750000 0.234922
vt 1.000000 0.234922
vt 0.750000 0.250547
vt 1.000000 0.250547
vt 0.750000 0.266172
vt 1.000000 0.266172
vt 0.750000 0.281797
vt 1.000000 0.281797
vt 0.750000 0.297422
vt 1.000000 0.297422
vt 0.750000 0.313047
vt 1.000000 0.313047
vt 0.750000 0.328672
vt 1.000000 0.328672
vt 0.750000 0.344297
vt 1.000000 0.344297
vt 0.750000 0.359922
vt 1.000000 0.359922
vt 0.750000 0.375547
vt 1.000000 0.375547
vt 0.750000 0.391172
vt 1.000000 0.391172
vt 0.750000 0.406797
vt 1.000000 0.406797
vt 0.750000 0.422422
vt 1.000000 0.422422
vt 0.750000 0.438047
vt 1.000000 0.438047
vt 0.750000 0.453672
vt 1.000000 0.453672
vt 0.750000 0.469297
vt 1.000000 0.469297
vt 0.898411 0.995194
vt 0.920922 0.988366
vt 0.941668 0.977276
vt 0.959853 0.962353
vt 0.974776 0.944168
vt 0.985866 0.923422
vt 0.992694 0.900911
vt 0.995000 0.877500
vt 0.992694 0.854089
vt 0.985866 0.831578
vt 0.974776 0.810832
vt 0.959853 0.792647
vt 0.941668 0.777724
vt 0.920922 0.766634
vt 0.898411 0.759806
vt 0.875000 0.757500
vt 0.851589 0.759806
vt 0.829078 0.766634
vt 0.808332 0.777724
vt 0.790147 0.792647
vt 0.775224 0.810832
vt 0.764134 0.831578
vt 0.757306 0.854089
vt 0.755000 0.877500
vt 0.757306 0.900911
vt 0.764134 0.923422
vt 0.775224 0.944168
vt 0.790147 0.962353
vt 0.808332 0.977276
vt 0.829078 0.988366
vt 0.851589 0.995194
vt 0.875000 0.997500
vt 0.750000 0.484922
vt 1.000000 0.484922
vt 0.750000 0.500547
vt 1.000000 0.500547
vt 0.851589 0.995194
vt 0.851589 0.759806
vt 0.898411 0.759806
vt 0.898411 0.995194
vt 0.000000 0.000175
vt 0.000000 0.015800
vt 0.250000 0.015800
vt 0.250000 0.000175
vt 0.000000 0.031425
vt 0.250000 0.031425
vt 0.000000 0.047050
vt 0.250000 0.047050
vt 0.000000 0.062675
vt 0.250000 0.062675
vt 0.000000 0.078300
vt 0.250000 0.078300
vt 0.000000 0.093925
vt 0.250000 0.093925
vt 0.000000 0.109550
vt 0.250000 0.109550
vt 0.000000 0.125175
vt 0.250000 0.125175
vt 0.000000 0.140800
vt 0.250000 0.140800
vt 0.000000 0.156425
vt 0.250000 0.156425
vt 0.000000 0.172050
vt 0.250000 0.172050
vt 0.000000 0.187675
vt 0.250000 0.187675
vt 0.000000 0.203300
vt 0.250000 0.203300
vt 0.000000 0.218925
vt 0.250000 0.218925
vt 0.000000 0.234550
vt 0.250000 0.234550
vt 0.000000 0.250175
vt 0.250000 0.250175
vt 0.000000 0.265800
vt 0.250000 0.265800
vt 0.000000 0.281425
vt 0.250000 0.281425
vt 0.000000 0.297050
vt 0.250000 0.297050
vt 0.000000 0.312675
vt 0.250000 0.312675
vt 0.000000 0.328300
vt 0.250000 0.328300
vt 0.000000 0.343925
vt 0.250000 0.343925
vt -0.000000 0.359550
vt 0.250000 0.359550
vt -0.000000 0.375175
vt 0.250000 0.375175
vt -0.000000 0.390800
vt 0.250000 0.390800
vt -0.000000 0.406425
vt 0.250000 0.406425
vt -0.000000 0.422050
vt 0.250000 0.422050
vt -0.000000 0.437675
vt 0.250000 0.437675
vt -0.000000 0.453300
vt 0.250000 0.453300
vt -0.000000 0.468925
vt 0.250000 0.468925
vt 0.148411 0.995194
vt 0.170922 0.988366
vt 0.191668 0.977276
vt 0.209853 0.962353
vt 0.224776 0.944168
vt 0.235866 0.923422
vt 0.242694 0.900911
vt 0.245000 0.877500
vt 0.242694 0.854089
vt 0.235866 0.831578
vt 0.224776 0.810832
vt 0.209853 0.792647
vt 0.191668 0.777724
vt 0.170922 0.766634
vt 0.148411 0.759806
vt 0.125000 0.757500
vt 0.101589 0.759806
vt 0.079078 0.766634
vt 0.058332 0.777724
vt 0.040147 0.792647
vt 0.025224 0.810832
vt 0.014134 0.831578
vt 0.007306 0.854089
vt 0.005000 0.877500
vt 0.007306 0.900911
vt 0.014134 0.923422
vt 0.025224 0.944168
vt 0.040147 0.962353
vt 0.058332 0.977276
vt 0.079078 0.988366
vt 0.101589 0.995194
vt 0.125000 0.997500
vt -0.000000 0.484550
vt 0.250000 0.484550
vt -0.000000 0.500175
vt 0.250000 0.500175
vt 0.101589 0.995194
vt 0.101589 0.759806
vt 0.148411 0.759806
vt 0.148411 0.995194
s 0
usemtl Material.001
f 1/1/1 3/2/1 4/3/1 2/4/1
f 3/2/2 10/5/2 9/6/2 4/3/2
f 6/7/2 14/7/2 13/8/2 5/8/2
f 11/9/3 1/10/3 2/11/3 12/12/3
f 3/13/4 1/14/4 11/9/4 10/5/4
f 9/6/5 12/12/5 2/15/5 4/16/5
f 8/17/6 9/6/6 10/5/6 7/18/6
f 7/18/6 10/5/6 11/9/6 5/8/6
f 6/7/6 12/12/6 9/6/6 8/17/6
f 5/8/6 11/9/6 12/12/6 6/7/6
f 5/8/5 13/8/5 15/18/5 7/18/5
f 8/17/4 16/17/4 14/7/4 6/7/4
f 7/18/3 15/18/3 16/17/3 8/17/3
f 17/23/7 19/24/7 20/25/7 18/26/7
f 19/24/8 21/27/8 22/28/8 20/25/8
f 21/27/9 23/29/9 24/30/9 22/28/9
f 23/29/10 25/31/10 26/32/10 24/30/10
f 25/31/11 27/33/11 28/34/11 26/32/11
f 27/33/12 29/35/12 30/36/12 28/34/12
f 29/35/13 31/37/13 32/38/13 30/36/13
f 31/37/14 33/39/14 34/40/14 32/38/14
f 33/39/15 35/41/15 36/42/15 34/40/15
f 35/41/16 37/43/16 38/44/16 36/42/16
f 37/43/17 39/45/17 40/46/17 38/44/17
f 39/45/18 41/47/18 42/48/18 40/46/18
f 41/47/19 43/49/19 44/50/19 42/48/19
f 43/49/20 45/51/20 46/52/20 44/50/20
f 45/51/21 47/53/21 48/54/21 46/52/21
f 47/53/22 49/55/22 50/56/22 48/54/22
f 49/55/23 51/57/23 52/58/23 50/56/23
f 51/57/24 53/59/24 54/60/24 52/58/24
f 53/59/25 55/61/25 56/62/25 54/60/25
f 55/61/26 57/63/26 58/64/26 56/62/26
f 57/63/27 59/65/27 60/66/27 58/64/27
f 59/65/28 61/67/28 62/68/28 60/66/28
f 61/67/29 63/69/29 64/70/29 62/68/29
f 63/69/30 65/71/30 66/72/30 64/70/30
f 65/71/31 67/73/31 68/74/31 66/72/31
f 67/73/32 69/75/32 70/76/32 68/74/32
f 69/75/33 71/77/33 72/78/33 70/76/33
f 71/77/34 73/79/34 74/80/34 72/78/34
f 73/79/35 75/81/35 76/82/35 74/80/35
f 75/81/36 77/83/36 78/84/36 76/82/36
f 20/85/1 22/86/1 24/87/1 26/88/1 28/89/1 30/90/1 32/91/1 34/92/1 36/93/1 38/94/1 40/95/1 42/96/1 44/97/1 46/98/1 48/99/1 50/100/1 52/101/1 54/102/1 56/103/1 58/104/1 60/105/1 62/106/1 64/107/1 66/108/1 68/109/1 70/110/1 72/111/1 74/112/1 76/113/1 78/114/1 80/115/1 18/116/1
f 77/83/37 79/117/37 80/118/37 78/84/37
f 79/117/38 17/119/38 18/120/38 80/118/38
f 17/116/6 79/121/6 77/114/6 75/113/6 73/112/6 71/111/6 69/110/6 67/109/6 65/108/6 63/107/6 61/106/6 59/105/6 57/104/6 55/103/6 53/102/6 51/122/6 49/100/6 47/123/6 45/98/6 43/97/6 41/96/6 39/95/6 37/94/6 35/93/6 33/92/6 31/91/6 29/90/6 27/89/6 25/88/6 23/87/6 21/86/6 19/124/6
f 81/125/7 83/126/7 84/127/7 82/128/7
f 83/126/8 85/129/8 86/130/8 84/127/8
f 85/129/9 87/131/9 88/132/9 86/130/9
f 87/131/10 89/133/10 90/134/10 88/132/10
f 89/133/11 91/135/11 92/136/11 90/134/11
f 91/135/12 93/137/12 94/138/12 92/136/12
f 93/137/13 95/139/13 96/140/13 94/138/13
f 95/139/14 97/141/14 98/142/14 96/140/14
f 97/141/15 99/143/15 100/144/15 98/142/15
f 99/143/16 101/145/16 102/146/16 100/144/16
f 101/145/17 103/147/17 104/148/17 102/146/17
f 103/147/18 105/149/18 106/150/18 104/148/18
f 105/149/19 107/151/19 108/152/19 106/150/19
f 107/151/20 109/153/20 110/154/20 108/152/20
f 109/153/21 111/155/21 112/156/21 110/154/21
f 111/155/22 113/157/22 114/158/22 112/156/22
f 113/157/23 115/159/23 116/160/23 114/158/23
f 115/159/24 117/161/24 118/162/24 116/160/24
f 117/161/25 119/163/25 120/164/25 118/162/25
f 119/163/26 121/165/26 122/166/26 120/164/26
f 121/165/27 123/167/27 124/168/27 122/166/27
f 123/167/28 125/169/28 126/170/28 124/168/28
f 125/169/29 127/171/29 128/172/29 126/170/29
f 127/171/30 129/173/30 130/174/30 128/172/30
f 129/173/31 131/175/31 132/176/31 130/174/31
f 131/175/32 133/177/32 134/178/32 132/176/32
f 133/177/33 135/179/33 136/180/33 134/178/33
f 135/179/34 137/181/34 138/182/34 136/180/34
f 137/181/35 139/183/35 140/184/35 138/182/35
f 139/183/36 141/185/36 142/186/36 140/184/36
f 84/187/1 86/188/1 88/189/1 90/190/1 92/191/1 94/192/1 96/193/1 98/194/1 100/195/1 102/196/1 104/197/1 106/198/1 108/199/1 110/200/1 112/201/1 114/202/1 116/203/1 118/204/1 120/205/1 122/206/1 124/207/1 126/208/1 128/209/1 130/210/1 132/211/1 134/212/1 136/213/1 138/214/1 140/215/1 142/216/1 144/217/1 82/218/1
f 141/185/37 143/219/37 144/220/37 142/186/37
f 143/219/38 81/221/38 82/222/38 144/220/38
f 81/218/6 143/223/6 141/216/6 139/215/6 137/214/6 135/213/6 133/212/6 131/211/6 129/210/6 127/209/6 125/208/6 123/207/6 121/206/6 119/205/6 117/204/6 115/224/6 113/202/6 111/225/6 109/200/6 107/199/6 105/198/6 103/197/6 101/196/6 99/195/6 97/194/6 95/193/6 93/192/6 91/191/6 89/190/6 87/189/6 85/188/6 83/226/6
usemtl Material.002
f 15/19/6 13/20/6 14/21/6 16/22/6
